<?xml version="1.0" encoding="UTF-8" standalone="no"?>
<svg
   xmlns:dc="http://purl.org/dc/elements/1.1/"
   xmlns:cc="http://creativecommons.org/ns#"
   xmlns:rdf="http://www.w3.org/1999/02/22-rdf-syntax-ns#"
   xmlns:svg="http://www.w3.org/2000/svg"
   xmlns="http://www.w3.org/2000/svg"
   xmlns:sodipodi="http://sodipodi.sourceforge.net/DTD/sodipodi-0.dtd"
   xmlns:inkscape="http://www.inkscape.org/namespaces/inkscape"
   inkscape:version="1.0 (4035a4f, 2020-05-01)"
   sodipodi:docname="app-logo-light.jpg.svg"
   id="svg839"
   version="1.1"
   width="512pt"
   viewBox="0 0 512.00007 512"
   height="512pt">
  <metadata
     id="metadata845">
    <rdf:RDF>
      <cc:Work
         rdf:about="">
        <dc:format>image/svg+xml</dc:format>
        <dc:type
           rdf:resource="http://purl.org/dc/dcmitype/StillImage" />
        <dc:title></dc:title>
      </cc:Work>
    </rdf:RDF>
  </metadata>
  <defs
     id="defs843" />
  <sodipodi:namedview
     inkscape:current-layer="svg839"
     inkscape:window-maximized="0"
     inkscape:window-y="0"
     inkscape:window-x="0"
     inkscape:cy="341.33333"
     inkscape:cx="341.33333"
     inkscape:zoom="0.97998047"
     showgrid="false"
     id="namedview841"
     inkscape:window-height="900"
     inkscape:window-width="1440"
     inkscape:pageshadow="2"
     inkscape:pageopacity="0"
     guidetolerance="10"
     gridtolerance="10"
     objecttolerance="10"
     borderopacity="1"
     bordercolor="#666666"
     pagecolor="#ffffff" />
  <path
     style="fill:#cccccc"
     id="path833"
     fill="#b3b6c3"
     d="m38.5 257.5c0 126.621094 95.664062 230.882812 218.660156 244.480469 134.796875-.632813 244.746094-110.808594 244.839844-245.804688.011719-13.707031-1.101562-27.152343-3.246094-40.25-5.695312-34.75-31.011718-57.402343-60.046875-64.183593-20 2.53125-39.386719 12.761718-53.335937 31.859374l-.519532.710938c-19.773437 27.074219-20.355468 63.691406-1.371093 91.324219 13.300781 19.367187 21.070312 42.828125 21.019531 68.109375-.140625 67.984375-57.511719 121.457031-125.472656 119.683594-6.933594-.183594-13.785156-.707032-20.53125-1.554688-2.636719.097656-5.292969.125-7.96875.054688-111.242188-2.902344-200.527344-93.988282-200.527344-205.929688 0-113.769531 92.230469-206 206-206v-36.847656c-122.433594 14.128906-217.5 118.125-217.5 244.347656zm0 0" />
  <path
     id="path835"
     d="m256 60c-5.519531 0-10.042969-4.472656-10.046875-9.992188-.007813-5.519531 4.511719-10 10.03125-10.007812h.015625c5.515625 0 10.035156 4.460938 10.046875 9.976562.015625 5.519532-4.496094 10.007813-10.019531 10.023438-.007813 0-.015625 0-.027344 0zm0 0" />
  <path
     id="path837"
     d="m256 512c-.164062 0-.320312 0-.480469 0-68.28125-.125-132.453125-26.8125-180.695312-75.140625-48.253907-48.332031-74.824219-112.5625-74.824219-180.859375 0-68.378906 26.628906-132.667969 74.980469-181.019531 48.351562-48.351563 112.640625-74.980469 181.019531-74.980469 5.523438 0 10 4.476562 10 10s-4.476562 10-10 10c-130.132812 0-236 105.867188-236 236 0 129.890625 105.667969 235.761719 235.554688 236h.445312c62.71875.003906 121.832031-24.519531 166.503906-69.078125 44.769532-44.65625 69.453125-103.875 69.496094-166.753906.007812-12.953125-1.039062-25.949219-3.117188-38.625-4.578124-27.957031-24.550781-49.414063-52.113281-55.988281-27.582031-6.582032-55.097656 3.550781-71.820312 26.445312l-.519531.710938c-17.261719 23.632812-17.746094 55.6875-1.207032 79.765624 14.957032 21.765626 22.832032 47.285157 22.777344 73.792969-.070312 34.859375-13.980469 67.542969-39.171875 92.03125-25.550781 24.84375-60.75 38.578125-96.5625 37.625-56.484375-1.472656-109.355469-24.589843-148.875-65.085937-39.585937-40.574219-61.390625-94.144532-61.390625-150.839844 0-51.222656 18.25-100.894531 51.390625-139.859375 32.757813-38.523437 78.09375-64.441406 127.65625-72.988281 5.441406-.941406 10.613281 2.710937 11.554687 8.152344.9375 5.441406-2.714843 10.617187-8.15625 11.554687-94.128906 16.230469-162.445312 97.460937-162.445312 193.140625 0 107.078125 83.804688 193.140625 190.789062 195.933594 30.898438.820312 60.066407-10.550782 82.097657-31.972656 21.292969-20.699219 33.054687-48.308594 33.113281-77.734376.046875-22.429687-6.613281-44.019531-19.261719-62.425781-21.335937-31.066406-20.71875-72.410156 1.539063-102.882812l.519531-.714844c21.5625-29.519531 57.046875-42.589844 92.613281-34.101563 35.550782 8.480469 61.304688 36.148438 67.210938 72.210938 2.25 13.742188 3.390625 27.832031 3.378906 41.871094-.046875 68.222656-26.816406 132.46875-75.371094 180.902344-48.445312 48.316406-112.582031 74.914062-180.628906 74.914062zm0 0" />
</svg>
